# xmcd CD database file
#
# Track frame offsets:
#	150
#	23188
#	38858
#
# Disc length: 820 seconds
#
# Revision: 10
# Processed by: cddbd v1.5.2PL0 Copyright (c) Steve Scherf et al.
# Submitted via: jetAudio 5
#
DISCID=1c033203
DTITLE=THE BOOM - ??
DYEAR=1900
DGENRE=
TTITLE0=??(????????????)
TTITLE1=100?????
TTITLE2=??(??????????)
EXTD=
EXTT0=
EXTT1=
EXTT2=
PLAYORDER=
